HIERARCHY
ROOT hips
{
	OFFSET 0.000000 104.274902 0.000000
	CHANNELS 6 Xposition Yposition Zposition Xrotation Yrotation Zrotation
	JOINT spine
	{
		OFFSET 0.000000 10.181549 0.131524
		CHANNELS 6 Xposition Yposition Zposition Xrotation Yrotation Zrotation
		JOINT chest
		{
			OFFSET 0.000000 9.893990 -1.470706
			CHANNELS 3 Xrotation Yrotation Zrotation
			JOINT upperChest
			{
				OFFSET 0.000000 9.220787 -1.370637
				CHANNELS 3 Xrotation Yrotation Zrotation
				JOINT neck
				{
					OFFSET 0.000000 16.740372 -2.049022
					CHANNELS 6 Xposition Yposition Zposition Xrotation Yrotation Zrotation
					JOINT head
					{
						OFFSET 0.000000 9.617859 1.684976
						CHANNELS 6 Xposition Yposition Zposition Xrotation Yrotation Zrotation
						JOINT headEnd
						{
							OFFSET 0.000000 22.037384 7.501072
							CHANNELS 6 Xposition Yposition Zposition Xrotation Yrotation Zrotation
							End Site
							{
								OFFSET 0.000000 23.106567 -2.828246
							}
						}
					}
				}
				JOINT rightShoulder
				{
					OFFSET -4.570000 11.014877 -2.160840
					CHANNELS 6 Xposition Yposition Zposition Xrotation Yrotation Zrotation
					JOINT rightUpperArm
					{
						OFFSET -10.592867 -0.524796 -2.232105
						CHANNELS 3 Xrotation Yrotation Zrotation
						JOINT rightLowerArm
						{
							OFFSET -27.841497 0.000000 -0.000002
							CHANNELS 3 Xrotation Yrotation Zrotation
							JOINT rightHand
							{
								OFFSET -28.328812 0.000000 -0.000001
								CHANNELS 3 Xrotation Yrotation Zrotation
								JOINT rightThumbProximal
								{
									OFFSET -2.464798 -1.573990 2.681911
									CHANNELS 6 Xposition Yposition Zposition Xrotation Yrotation Zrotation
									JOINT rightThumbIntermediate
									{
										OFFSET -3.244781 -1.873383 1.873376
										CHANNELS 3 Xrotation Yrotation Zrotation
										JOINT rightThumbDistal
										{
											OFFSET -2.646263 -1.527817 1.527818
											CHANNELS 6 Xposition Yposition Zposition Xrotation Yrotation Zrotation
											JOINT rightHandThumb4
											{
												OFFSET -1.994591 -1.151581 1.151575
												CHANNELS 6 Xposition Yposition Zposition Xrotation Yrotation Zrotation
												End Site
												{
													OFFSET -1.860176 -1.142715 1.365483
												}
											}
										}
									}
								}
								JOINT rightIndexProximal
								{
									OFFSET -9.108299 -0.517883 2.259803
									CHANNELS 6 Xposition Yposition Zposition Xrotation Yrotation Zrotation
									JOINT rightIndexIntermediate
									{
										OFFSET -3.699997 0.000000 0.000000
										CHANNELS 3 Xrotation Yrotation Zrotation
										JOINT rightIndexDistal
										{
											OFFSET -2.850006 0.000000 0.000000
											CHANNELS 3 Xrotation Yrotation Zrotation
											JOINT rightHandIndex4
											{
												OFFSET -2.772194 0.000000 0.000000
												CHANNELS 3 Xrotation Yrotation Zrotation
												End Site
												{
													OFFSET -2.772202 0.000000 -0.000484
												}
											}
										}
									}
								}
								JOINT rightMiddleProximal
								{
									OFFSET -9.532501 0.000000 -0.000000
									CHANNELS 6 Xposition Yposition Zposition Xrotation Yrotation Zrotation
									JOINT rightMiddleIntermediate
									{
										OFFSET -3.699997 0.000000 0.000000
										CHANNELS 3 Xrotation Yrotation Zrotation
										JOINT rightMiddleDistal
										{
											OFFSET -2.949997 0.000000 0.000000
											CHANNELS 3 Xrotation Yrotation Zrotation
											JOINT rightHandMiddle4
											{
												OFFSET -2.946594 0.000000 0.000000
												CHANNELS 3 Xrotation Yrotation Zrotation
												End Site
												{
													OFFSET -2.946602 0.000000 -0.000982
												}
											}
										}
									}
								}
								JOINT rightRingProximal
								{
									OFFSET -9.103600 -0.043106 -1.865100
									CHANNELS 6 Xposition Yposition Zposition Xrotation Yrotation Zrotation
									JOINT rightRingIntermediate
									{
										OFFSET -3.379303 0.000000 0.000000
										CHANNELS 3 Xrotation Yrotation Zrotation
										JOINT rightRingDistal
										{
											OFFSET -2.889694 0.000000 0.000000
											CHANNELS 3 Xrotation Yrotation Zrotation
											JOINT rightHandRing4
											{
												OFFSET -2.638802 0.000000 0.000000
												CHANNELS 3 Xrotation Yrotation Zrotation
												End Site
												{
													OFFSET -2.638802 0.000000 0.004218
												}
											}
										}
									}
								}
								JOINT rightLittleProximal
								{
									OFFSET -8.076698 -0.486725 -3.806299
									CHANNELS 6 Xposition Yposition Zposition Xrotation Yrotation Zrotation
									JOINT rightLittleIntermediate
									{
										OFFSET -3.600006 0.000000 0.000000
										CHANNELS 3 Xrotation Yrotation Zrotation
										JOINT rightLittleDistal
										{
											OFFSET -2.099998 0.000000 0.000000
											CHANNELS 3 Xrotation Yrotation Zrotation
											JOINT rightHandPinky4
											{
												OFFSET -2.115791 0.000000 0.000000
												CHANNELS 3 Xrotation Yrotation Zrotation
												End Site
												{
													OFFSET -2.115799 0.000000 0.000174
												}
											}
										}
									}
								}
							}
						}
					}
				}
				JOINT leftShoulder
				{
					OFFSET 4.570400 11.014679 -2.160816
					CHANNELS 6 Xposition Yposition Zposition Xrotation Yrotation Zrotation
					JOINT leftUpperArm
					{
						OFFSET 10.592373 -0.524597 -2.232116
						CHANNELS 3 Xrotation Yrotation Zrotation
						JOINT leftLowerArm
						{
							OFFSET 27.841488 0.000000 0.000001
							CHANNELS 3 Xrotation Yrotation Zrotation
							JOINT leftHand
							{
								OFFSET 28.328808 0.000000 -0.000000
								CHANNELS 3 Xrotation Yrotation Zrotation
								JOINT leftThumbProximal
								{
									OFFSET 2.466103 -1.576202 2.681698
									CHANNELS 6 Xposition Yposition Zposition Xrotation Yrotation Zrotation
									JOINT leftThumbIntermediate
									{
										OFFSET 3.243317 -1.872528 1.872530
										CHANNELS 3 Xrotation Yrotation Zrotation
										JOINT leftThumbDistal
										{
											OFFSET 2.647881 -1.528763 1.528754
											CHANNELS 6 Xposition Yposition Zposition Xrotation Yrotation Zrotation
											JOINT leftHandThumb4
											{
												OFFSET 1.998924 -1.154083 1.154080
												CHANNELS 6 Xposition Yposition Zposition Xrotation Yrotation Zrotation
												End Site
												{
													OFFSET 1.884041 -1.149155 1.337651
												}
											}
										}
									}
								}
								JOINT leftIndexProximal
								{
									OFFSET 9.109299 -0.518005 2.259900
									CHANNELS 6 Xposition Yposition Zposition Xrotation Yrotation Zrotation
									JOINT leftIndexIntermediate
									{
										OFFSET 3.699997 0.000000 0.000000
										CHANNELS 3 Xrotation Yrotation Zrotation
										JOINT leftIndexDistal
										{
											OFFSET 2.850006 0.000000 0.000000
											CHANNELS 3 Xrotation Yrotation Zrotation
											JOINT leftHandIndex4
											{
												OFFSET 2.774895 0.000000 0.000000
												CHANNELS 3 Xrotation Yrotation Zrotation
												End Site
												{
													OFFSET 2.774902 0.000000 -0.000072
												}
											}
										}
									}
								}
								JOINT leftMiddleProximal
								{
									OFFSET 9.533401 0.000000 0.000000
									CHANNELS 6 Xposition Yposition Zposition Xrotation Yrotation Zrotation
									JOINT leftMiddleIntermediate
									{
										OFFSET 3.699997 0.000000 0.000000
										CHANNELS 3 Xrotation Yrotation Zrotation
										JOINT leftMiddleDistal
										{
											OFFSET 2.949997 0.000000 0.000000
											CHANNELS 3 Xrotation Yrotation Zrotation
											JOINT leftHandMiddle4
											{
												OFFSET 2.952896 0.000000 0.000000
												CHANNELS 3 Xrotation Yrotation Zrotation
												End Site
												{
													OFFSET 2.952904 0.000000 0.000165
												}
											}
										}
									}
								}
								JOINT leftRingProximal
								{
									OFFSET 9.104500 -0.042999 -1.865101
									CHANNELS 6 Xposition Yposition Zposition Xrotation Yrotation Zrotation
									JOINT leftRingIntermediate
									{
										OFFSET 3.149994 0.000000 0.000000
										CHANNELS 3 Xrotation Yrotation Zrotation
										JOINT leftRingDistal
										{
											OFFSET 2.950005 0.000000 0.000000
											CHANNELS 3 Xrotation Yrotation Zrotation
											JOINT leftHandRing4
											{
												OFFSET 2.644302 0.000000 0.000000
												CHANNELS 3 Xrotation Yrotation Zrotation
												End Site
												{
													OFFSET 2.644302 0.000000 0.000083
												}
											}
										}
									}
								}
								JOINT leftLittleProximal
								{
									OFFSET 8.077805 -0.486893 -3.806302
									CHANNELS 6 Xposition Yposition Zposition Xrotation Yrotation Zrotation
									JOINT leftLittleIntermediate
									{
										OFFSET 3.600006 0.000000 0.000000
										CHANNELS 3 Xrotation Yrotation Zrotation
										JOINT leftLittleDistal
										{
											OFFSET 2.099998 0.000000 0.000000
											CHANNELS 3 Xrotation Yrotation Zrotation
											JOINT leftHandPinky4
											{
												OFFSET 2.125496 0.000000 0.000000
												CHANNELS 3 Xrotation Yrotation Zrotation
												End Site
												{
													OFFSET 2.125504 0.000000 -0.001254
												}
											}
										}
									}
								}
							}
						}
					}
				}
			}
		}
	}
	JOINT rightUpperLeg
	{
		OFFSET -8.207800 -6.751701 -1.599544
		CHANNELS 6 Xposition Yposition Zposition Xrotation Yrotation Zrotation
		JOINT rightLowerLeg
		{
			OFFSET 0.000004 -44.370152 0.345934
			CHANNELS 3 Xrotation Yrotation Zrotation
			JOINT rightFoot
			{
				OFFSET 0.000004 -44.423664 -3.043535
				CHANNELS 3 Xrotation Yrotation Zrotation
				JOINT rightToes
				{
					OFFSET 0.000001 -8.728691 10.710592
					CHANNELS 3 Xrotation Yrotation Zrotation
					JOINT rightToesEnd
					{
						OFFSET 0.000000 -0.000665 9.278101
						CHANNELS 3 Xrotation Yrotation Zrotation
						End Site
						{
							OFFSET 0.000000 -0.000665 9.278103
						}
					}
				}
			}
		}
	}
	JOINT leftUpperLeg
	{
		OFFSET 8.207800 -6.751701 -1.599544
		CHANNELS 6 Xposition Yposition Zposition Xrotation Yrotation Zrotation
		JOINT leftLowerLeg
		{
			OFFSET 0.000004 -44.370037 0.346940
			CHANNELS 3 Xrotation Yrotation Zrotation
			JOINT leftFoot
			{
				OFFSET 0.000004 -44.423611 -3.044388
				CHANNELS 3 Xrotation Yrotation Zrotation
				JOINT leftToes
				{
					OFFSET 0.000001 -8.728690 10.710592
					CHANNELS 3 Xrotation Yrotation Zrotation
					JOINT leftToesEnd
					{
						OFFSET 0.000000 -0.000680 9.278101
						CHANNELS 3 Xrotation Yrotation Zrotation
						End Site
						{
							OFFSET 0.000000 -0.000680 9.278101
						}
					}
				}
			}
		}
	}
}
MOTION
Frames: 4
Frame Time: 0.033333
0.255524 101.659416 0.797618 -5.317905 -1.269143 -2.815958 0.000000 10.181540 0.131524 2.208168 -0.076374 1.073839 4.416085 0.148216 0.194273 4.416082 0.148217 0.194274 0.000000 16.740374 -2.049019 6.126587 2.841922 -0.534318 0.000001 9.617858 1.684973 11.661687 -2.851478 3.111279 0.000000 22.037384 7.501069 -0.000001 0.000000 -0.000000 -4.570001 11.014864 -2.160839 3.152301 1.302485 13.165648 -2.348512 32.321606 60.343588 -9.381985 88.349720 9.378332 -90.647156 -10.514111 13.797457 -2.464796 -1.574008 2.681905 -8.599178 11.145947 -3.067979 9.791648 -62.969624 -9.911436 -2.646266 -1.527807 1.527817 6.052331 -11.608428 -23.144345 -1.994603 -1.151586 1.151574 -0.000002 -0.000004 0.000005 -9.108305 -0.517878 2.259804 4.424391 -13.846213 12.459792 5.154473 -6.009751 89.197326 0.166465 -1.987171 34.438097 -0.000001 -0.000002 -0.000000 -9.532494 0.000006 -0.000000 2.243007 -10.152772 34.371120 5.410800 -6.086545 93.654796 -2.102650 1.438190 31.427575 -0.000002 0.000004 0.000002 -9.103592 -0.043110 -1.865099 -0.267930 -7.267302 48.595495 6.106250 -4.918877 94.520003 -2.818677 2.094799 37.625620 0.000003 0.000010 0.000002 -8.076692 -0.486723 -3.806296 -9.923680 -10.534240 55.911925 5.382952 -5.507884 97.815686 -2.575914 0.951479 30.506664 -0.000000 0.000000 -0.000000 4.570402 11.014668 -2.160814 0.354339 -14.411004 -12.099210 2.990259 -0.189932 -66.544013 -0.036849 -15.370939 -0.009764 -11.658124 -1.050263 4.365191 2.466092 -1.576202 2.681700 -23.790003 4.047967 10.573835 4.709882 32.208396 13.783557 2.647905 -1.528750 1.528758 0.543862 -16.137270 -10.236895 1.998917 -1.154095 1.154075 0.000001 -0.000001 -0.000000 9.109294 -0.518014 2.259902 0.112131 5.928253 -19.224100 0.971438 3.809669 -35.175498 -0.022132 -0.118411 -1.021834 -0.000001 -0.000001 0.000001 9.533399 -0.000003 0.000001 0.769480 9.440519 -9.355381 1.180484 4.188533 -40.136989 0.097589 1.089230 -9.177568 0.000000 -0.000001 -0.000002 9.104502 -0.043000 -1.865100 1.431077 9.085554 -28.726007 2.633201 4.355107 -54.789063 0.392352 1.391207 -16.014103 -0.000000 -0.000000 -0.000000 8.077816 -0.486888 -3.806299 1.981794 9.580318 -39.242042 2.141088 4.538954 -59.769633 0.854218 3.385375 -29.676766 -0.000000 0.000000 0.000001 -8.207799 -6.751730 -1.599543 -6.294505 -3.998584 5.750644 22.024847 -3.316307 4.841154 -12.753059 0.850019 -4.994403 1.978143 0.000001 0.000000 0.000000 -0.000000 0.000000 8.207799 -6.751719 -1.599542 -19.688107 4.275790 1.503348 61.518681 9.406181 3.278656 1.387575 7.814394 -3.361213 -1.669888 0.000010 -0.000002 -0.000003 -0.000000 0.000001 
0.214922 101.961021 4.187655 -4.890920 -2.870411 -1.732791 0.000000 10.181557 0.131522 2.234036 0.400229 0.766716 4.483069 0.956698 -0.268362 4.483069 0.956698 -0.268362 -0.000000 16.740376 -2.049023 6.119659 2.923179 -1.006270 0.000001 9.617868 1.684970 11.507557 -2.583512 2.756836 -0.000000 22.037399 7.501075 0.000002 0.000000 -0.000000 -4.569999 11.014898 -2.160841 2.951222 2.601680 12.142995 -2.920287 31.372340 61.309076 -11.403144 88.593769 11.399984 -91.305224 -9.878638 13.127148 -2.464788 -1.573988 2.681911 -7.982764 11.085257 -0.653726 9.495114 -60.552052 -9.845350 -2.646261 -1.527808 1.527822 6.237486 -13.305443 -23.082836 -1.994594 -1.151600 1.151573 0.000002 -0.000004 -0.000002 -9.108291 -0.517892 2.259805 4.424392 -13.846209 12.459788 5.154471 -6.009751 89.197326 0.166464 -1.987169 34.438101 0.000000 -0.000005 -0.000001 -9.532495 0.000010 0.000002 2.243008 -10.152766 34.371114 5.410801 -6.086543 93.654796 -2.102650 1.438189 31.427568 0.000001 0.000006 0.000004 -9.103600 -0.043125 -1.865103 -0.267930 -7.267302 48.595491 6.106247 -4.918874 94.520003 -2.818686 2.094802 37.625620 -0.000003 0.000004 0.000002 -8.076680 -0.486746 -3.806299 -9.923679 -10.534240 55.911929 5.382951 -5.507885 97.815686 -2.575916 0.951476 30.506661 -0.000000 0.000000 -0.000000 4.570400 11.014715 -2.160818 0.306531 -12.658418 -13.127282 4.834224 1.299368 -66.968113 -0.018480 -14.897618 -0.004745 -10.860988 0.051166 5.141822 2.466090 -1.576202 2.681702 -23.790000 4.047965 10.573835 4.709881 32.208399 13.783555 2.647900 -1.528760 1.528755 0.543863 -16.137270 -10.236897 1.998936 -1.154094 1.154076 -0.000000 -0.000003 0.000001 9.109292 -0.518007 2.259899 0.115428 5.984767 -19.830305 1.003615 3.854720 -35.784625 -0.023097 -0.062864 -1.628762 0.000001 -0.000001 0.000002 9.533402 0.000009 0.000001 0.811024 9.489732 -9.967436 1.215381 4.231051 -40.748878 0.108337 1.142866 -9.784768 0.000001 -0.000000 0.000003 9.104493 -0.043006 -1.865101 1.468861 9.127868 -29.338576 2.681599 4.381641 -55.400091 0.413220 1.441672 -16.621648 0.000000 -0.000000 -0.000000 8.077803 -0.486897 -3.806302 2.017436 9.622712 -39.854973 2.186204 4.570921 -60.380211 0.885142 3.431085 -30.285568 -0.000001 -0.000000 -0.000000 -8.207800 -6.751707 -1.599544 -4.020021 -4.136459 4.189757 20.584247 -0.655012 5.050650 -13.199411 0.795966 -4.825583 1.965734 -0.000012 -0.000002 -0.000000 0.000000 0.000000 8.207800 -6.751696 -1.599543 -21.932410 4.185785 0.622710 54.511439 9.222493 2.677640 -0.153837 8.451445 -3.462210 -0.628084 0.000007 -0.000002 -0.000002 0.000000 -0.000001 
0.218228 102.315857 7.607120 -4.233755 -4.245136 -0.595787 0.000000 10.181554 0.131525 2.205447 0.824747 0.400154 4.437880 1.667328 -0.702830 4.437882 1.667327 -0.702830 -0.000000 16.740356 -2.049020 6.092072 2.995337 -1.437952 0.000000 9.617836 1.684971 11.298742 -2.281246 2.329471 -0.000000 22.037399 7.501069 0.000002 -0.000000 -0.000000 -4.569998 11.014869 -2.160838 2.824443 3.606534 11.468446 -3.236485 30.646854 61.815377 -13.868141 88.827689 13.865536 -91.583903 -9.268488 12.720892 -2.464799 -1.573994 2.681910 -7.406988 10.936048 2.048549 9.200354 -58.211448 -9.791639 -2.646267 -1.527792 1.527819 6.471897 -15.151637 -23.028908 -1.994587 -1.151597 1.151575 -0.000003 -0.000004 0.000005 -9.108299 -0.517874 2.259804 4.424390 -13.846209 12.459789 5.154473 -6.009753 89.197326 0.166469 -1.987169 34.438097 -0.000000 -0.000000 0.000005 -9.532502 0.000006 0.000000 2.243007 -10.152765 34.371117 5.410797 -6.086546 93.654796 -2.102650 1.438188 31.427572 0.000002 0.000002 0.000002 -9.103588 -0.043110 -1.865099 -0.267932 -7.267300 48.595495 6.106246 -4.918873 94.520003 -2.818686 2.094799 37.625620 -0.000003 -0.000000 0.000000 -8.076699 -0.486716 -3.806302 -9.923682 -10.534241 55.911929 5.382951 -5.507882 97.815686 -2.575915 0.951475 30.506664 0.000000 0.000002 -0.000000 4.570400 11.014656 -2.160813 0.295524 -11.275936 -13.936937 6.781643 2.934316 -67.545271 0.000266 -14.866863 0.000074 -11.021920 0.951762 6.142520 2.466090 -1.576214 2.681702 -23.789998 4.047968 10.573833 4.709881 32.208399 13.783557 2.647882 -1.528741 1.528758 0.543863 -16.137273 -10.236891 1.998921 -1.154096 1.154074 0.000001 0.000004 0.000001 9.109277 -0.518017 2.259899 0.123311 6.045581 -20.497637 1.039529 3.903818 -36.453949 -0.023470 -0.001796 -2.295670 -0.000000 0.000001 0.000005 9.533401 -0.000001 -0.000000 0.857276 9.543323 -10.640127 1.254263 4.277342 -41.421279 0.120801 1.201669 -10.452002 -0.000001 0.000001 -0.000003 9.104476 -0.043003 -1.865101 1.510905 9.173895 -30.011865 2.735105 4.410196 -56.071451 0.436779 1.496868 -17.289253 0.000001 -0.000001 0.000000 8.077795 -0.486901 -3.806302 2.057109 9.669011 -40.528515 2.236169 4.605501 -61.051127 0.919680 3.480942 -30.954619 0.000000 -0.000001 -0.000001 -8.207799 -6.751699 -1.599544 -1.761078 -4.188194 2.685069 18.630036 1.709158 5.172706 -13.399710 0.880254 -5.821494 1.609602 -0.000002 -0.000002 0.000000 0.000000 0.000000 8.207800 -6.751689 -1.599543 -23.849168 3.855420 -0.608104 45.573327 9.176770 2.686308 -0.021863 8.710551 -3.040304 0.182858 0.000008 -0.000005 0.000000 -0.000000 0.000000 
0.260214 102.691704 11.050591 -3.420541 -5.388671 0.391594 -0.000000 10.181546 0.131523 2.132404 1.180313 0.048145 4.297584 2.283186 -1.016191 4.297586 2.283185 -1.016190 0.000000 16.740355 -2.049021 6.023221 3.059298 -1.815831 -0.000001 9.617875 1.684971 11.082264 -1.933476 1.871838 -0.000000 22.037384 7.501074 0.000000 0.000000 0.000000 -4.570000 11.014867 -2.160841 2.743413 4.298945 11.001030 -3.352659 30.175803 61.937023 -16.572520 89.017043 16.570358 -91.624249 -8.786608 12.575018 -2.464806 -1.573983 2.681908 -6.748994 10.831962 4.499726 8.909421 -55.935114 -9.744102 -2.646269 -1.527781 1.527822 6.735356 -17.122214 -22.969696 -1.994589 -1.151583 1.151583 0.000001 -0.000002 -0.000001 -9.108307 -0.517874 2.259805 4.424390 -13.846213 12.459789 5.154471 -6.009752 89.197319 0.166470 -1.987170 34.438101 0.000001 -0.000000 -0.000001 -9.532501 0.000010 0.000003 2.243007 -10.152769 34.371117 5.410797 -6.086545 93.654803 -2.102649 1.438190 31.427568 -0.000002 0.000002 -0.000002 -9.103611 -0.043106 -1.865097 -0.267932 -7.267305 48.595488 6.106245 -4.918876 94.520003 -2.818682 2.094798 37.625617 -0.000001 0.000005 0.000000 -8.076685 -0.486731 -3.806301 -9.923682 -10.534238 55.911925 5.382952 -5.507885 97.815686 -2.575914 0.951476 30.506664 -0.000001 0.000000 0.000000 4.570401 11.014678 -2.160817 0.291170 -10.354444 -14.596189 8.819625 4.500542 -68.218953 0.013940 -15.170441 0.003658 -11.894047 1.825270 7.083651 2.466100 -1.576197 2.681700 -23.790000 4.047969 10.573834 4.709883 32.208396 13.783554 2.647900 -1.528736 1.528751 0.543863 -16.137276 -10.236894 1.998917 -1.154094 1.154069 -0.000001 0.000000 0.000003 9.109288 -0.518012 2.259900 0.138906 6.109033 -21.222728 1.079145 3.956604 -37.180107 -0.023087 0.064419 -3.019057 0.000000 -0.000001 0.000005 9.533389 0.000002 0.000002 0.908200 9.600822 -11.369967 1.297051 4.327030 -42.150709 0.135093 1.265288 -11.175748 0.000002 -0.000001 0.000000 9.104502 -0.043003 -1.865101 1.557156 9.223258 -30.742326 2.793515 4.440449 -56.799703 0.463049 1.556415 -18.013442 -0.000001 0.000000 0.000000 8.077800 -0.486892 -3.806302 2.100889 9.718966 -41.259243 2.290839 4.642354 -61.779000 0.957793 3.534547 -31.680357 -0.000000 -0.000001 0.000000 -8.207801 -6.751704 -1.599544 0.837388 -4.111410 1.447832 15.646630 3.613787 5.148313 -13.007005 0.914952 -6.746904 0.898165 -0.000004 0.000000 0.000000 -0.000000 0.000000 8.207799 -6.751704 -1.599543 -25.135118 3.384560 -1.735743 34.689527 9.234988 3.114198 1.354836 8.278084 -2.561864 0.683514 -0.000010 0.000000 0.000001 0.000000 0.000000 
